<svg xmlns="http://www.w3.org/2000/svg" xmlns:xlink="http://www.w3.org/1999/xlink" width="2000" zoomAndPan="magnify" viewBox="0 0 1500 1499.999933" height="2000" preserveAspectRatio="xMidYMid meet" version="1.0"><defs><g/><clipPath id="84d662df17"><path d="M 274.980469 291.683594 L 1194.675781 291.683594 L 1194.675781 1211.382812 L 274.980469 1211.382812 Z M 274.980469 291.683594 " clip-rule="nonzero"/></clipPath><clipPath id="7f326392d9"><path d="M 734.828125 291.683594 C 480.859375 291.683594 274.980469 497.566406 274.980469 751.535156 C 274.980469 1005.5 480.859375 1211.382812 734.828125 1211.382812 C 988.792969 1211.382812 1194.675781 1005.5 1194.675781 751.535156 C 1194.675781 497.566406 988.792969 291.683594 734.828125 291.683594 Z M 734.828125 291.683594 " clip-rule="nonzero"/></clipPath><clipPath id="a21939dde5"><path d="M 0.980469 0.683594 L 920.675781 0.683594 L 920.675781 920.382812 L 0.980469 920.382812 Z M 0.980469 0.683594 " clip-rule="nonzero"/></clipPath><clipPath id="3bf3a39bc3"><path d="M 460.828125 0.683594 C 206.859375 0.683594 0.980469 206.566406 0.980469 460.535156 C 0.980469 714.5 206.859375 920.382812 460.828125 920.382812 C 714.792969 920.382812 920.675781 714.5 920.675781 460.535156 C 920.675781 206.566406 714.792969 0.683594 460.828125 0.683594 Z M 460.828125 0.683594 " clip-rule="nonzero"/></clipPath><clipPath id="30fe25c304"><rect x="0" width="921" y="0" height="921"/></clipPath><clipPath id="266cb58f9a"><rect x="0" width="628" y="0" height="859"/></clipPath><clipPath id="6e0a83aaf5"><rect x="0" width="607" y="0" height="859"/></clipPath><clipPath id="015a8a1927"><rect x="0" width="632" y="0" height="440"/></clipPath></defs><g clip-path="url(#84d662df17)"><g clip-path="url(#7f326392d9)"><g transform="matrix(1, 0, 0, 1, 274, 291)"><g clip-path="url(#30fe25c304)"><g clip-path="url(#a21939dde5)"><g clip-path="url(#3bf3a39bc3)"><path fill="#000000" d="M 0.980469 0.683594 L 920.675781 0.683594 L 920.675781 920.382812 L 0.980469 920.382812 Z M 0.980469 0.683594 " fill-opacity="1" fill-rule="nonzero"/></g></g></g></g></g></g><g transform="matrix(1, 0, 0, 1, 543, 422)"><g clip-path="url(#266cb58f9a)"><g fill="#ffffff" fill-opacity="1"><g transform="translate(6.725318, 621.533249)"><g><path d="M 492.25 -569.078125 C 506.632812 -578.816406 523.773438 -586.4375 543.671875 -591.9375 C 563.578125 -597.445312 579.671875 -600.203125 591.953125 -600.203125 C 604.234375 -600.203125 612.066406 -600.203125 615.453125 -600.203125 L 615.453125 -593.859375 C 595.554688 -593.003906 576.925781 -589.082031 559.5625 -582.09375 C 542.195312 -575.113281 527.90625 -567.070312 516.6875 -557.96875 C 505.476562 -548.863281 494.578125 -536.796875 483.984375 -521.765625 C 473.398438 -506.742188 465.25 -493.9375 459.53125 -483.34375 C 453.820312 -472.757812 447.15625 -459.210938 439.53125 -442.703125 L 262.953125 -56.53125 C 247.285156 -22.226562 239.453125 -0.421875 239.453125 8.890625 L 233.75 8.890625 L 55.265625 -398.25 C 49.335938 -411.789062 41.1875 -421.84375 30.8125 -428.40625 C 20.4375 -434.96875 9.957031 -438.25 -0.625 -438.25 L -5.703125 -438.25 L -5.703125 -444.609375 L 137.203125 -444.609375 L 137.203125 -438.25 L 131.484375 -438.25 C 118.773438 -438.25 110.304688 -432.320312 106.078125 -420.46875 C 105.234375 -417.925781 104.8125 -414.960938 104.8125 -411.578125 C 104.8125 -408.191406 105.867188 -403.957031 107.984375 -398.875 L 240.734375 -66.0625 L 398.25 -442.703125 C 423.226562 -501.546875 454.5625 -543.671875 492.25 -569.078125 Z M 492.25 -569.078125 "/></g></g></g></g></g><g transform="matrix(1, 0, 0, 1, 405, 322)"><g clip-path="url(#6e0a83aaf5)"><g fill="#ffffff" fill-opacity="1"><g transform="translate(2.60036, 621.533239)"><g><path d="M 602.109375 107.96875 C 584.328125 112.632812 568.554688 114.96875 554.796875 114.96875 C 541.035156 114.96875 528.863281 114.117188 518.28125 112.421875 C 507.695312 110.722656 496.367188 107.4375 484.296875 102.5625 C 472.234375 97.695312 460.910156 92.085938 450.328125 85.734375 C 439.742188 79.390625 429.15625 71.5625 418.5625 62.25 C 399.082031 46.582031 381.40625 29.644531 365.53125 11.4375 C 349.65625 -6.769531 319.0625 -40.960938 273.75 -91.140625 C 228.445312 -141.316406 198.382812 -174.660156 183.5625 -191.171875 C 168.738281 -207.691406 157.304688 -216.375 149.265625 -217.21875 L 149.265625 -223.578125 C 173.816406 -223.578125 190.222656 -224.101562 198.484375 -225.15625 C 206.742188 -226.21875 215.53125 -228.125 224.84375 -230.875 C 234.15625 -233.625 241.988281 -237.332031 248.34375 -242 C 273.320312 -258.082031 285.8125 -284.757812 285.8125 -322.03125 C 285.8125 -352.9375 278.929688 -377.703125 265.171875 -396.328125 C 251.410156 -414.960938 232.039062 -424.492188 207.0625 -424.921875 L 128.296875 -424.921875 L 128.296875 -46.359375 C 128.296875 -35.773438 132.210938 -26.457031 140.046875 -18.40625 C 147.878906 -10.363281 157.515625 -6.34375 168.953125 -6.34375 L 176.578125 -6.34375 L 177.203125 0 L 38.109375 0 L 38.109375 -6.34375 L 46.359375 -6.34375 C 56.953125 -6.34375 66.269531 -10.15625 74.3125 -17.78125 C 82.351562 -25.40625 86.585938 -34.722656 87.015625 -45.734375 L 87.015625 -398.25 C 86.585938 -409.25 82.457031 -418.664062 74.625 -426.5 C 66.789062 -434.332031 57.367188 -438.25 46.359375 -438.25 L 38.109375 -438.25 L 38.109375 -444.609375 L 209.59375 -444.609375 C 246.863281 -444.609375 276.820312 -434.128906 299.46875 -413.171875 C 322.125 -392.210938 333.453125 -364.476562 333.453125 -329.96875 C 333.453125 -295.457031 323.078125 -265.816406 302.328125 -241.046875 C 281.585938 -216.273438 256.179688 -203.890625 226.109375 -203.890625 C 226.109375 -203.890625 225.898438 -203.890625 225.484375 -203.890625 C 239.878906 -188.640625 256.179688 -170.851562 274.390625 -150.53125 C 347.640625 -69.65625 394.640625 -18.84375 415.390625 1.90625 C 436.140625 22.65625 454.453125 39.695312 470.328125 53.03125 C 486.210938 66.375 500.289062 76.21875 512.5625 82.5625 C 537.539062 96.113281 562.3125 102.890625 586.875 102.890625 C 591.945312 102.890625 597.023438 102.46875 602.109375 101.625 Z M 602.109375 107.96875 "/></g></g></g></g></g><g transform="matrix(1, 0, 0, 1, 565, 258)"><g clip-path="url(#015a8a1927)"><g fill="#ffffff" fill-opacity="1"><g transform="translate(28.625493, 157.831453)"><g><path d="M 22.3125 -13.109375 L 24.78125 -9.703125 C 24.40625 -9.148438 23.890625 -8.632812 23.234375 -8.15625 C 22.585938 -7.675781 21.863281 -7.296875 21.0625 -7.015625 C 18.238281 -6.023438 15.578125 -6.492188 13.078125 -8.421875 L 7.09375 -13.03125 C 6.46875 -13.507812 5.894531 -13.796875 5.375 -13.890625 C 4.863281 -13.992188 4.351562 -13.957031 3.84375 -13.78125 L 3.671875 -13.71875 L 7.5625 -2.65625 L 2.75 -0.96875 L -6.6875 -27.796875 L 1.671875 -30.734375 C 5.078125 -31.929688 7.898438 -32.128906 10.140625 -31.328125 C 12.390625 -30.535156 13.953125 -28.90625 14.828125 -26.4375 C 15.347656 -24.945312 15.46875 -23.550781 15.1875 -22.25 C 14.90625 -20.945312 14.304688 -19.78125 13.390625 -18.75 C 12.484375 -17.726562 11.34375 -16.878906 9.96875 -16.203125 C 10.863281 -16.054688 11.796875 -15.617188 12.765625 -14.890625 L 15.96875 -12.484375 C 16.820312 -11.878906 17.546875 -11.515625 18.140625 -11.390625 C 18.734375 -11.265625 19.40625 -11.332031 20.15625 -11.59375 C 21.039062 -11.90625 21.757812 -12.410156 22.3125 -13.109375 Z M 2.734375 -26.59375 L -0.46875 -25.46875 L 2.3125 -17.578125 L 5.296875 -18.625 C 7.359375 -19.351562 8.765625 -20.203125 9.515625 -21.171875 C 10.273438 -22.148438 10.414062 -23.332031 9.9375 -24.71875 C 9.007812 -27.332031 6.609375 -27.957031 2.734375 -26.59375 Z M 2.734375 -26.59375 "/></g></g></g><g fill="#ffffff" fill-opacity="1"><g transform="translate(80.328851, 142.026964)"><g><path d="M 2.859375 -0.625 L -3.15625 -28.421875 L 1.921875 -29.515625 L 7.9375 -1.71875 Z M 2.859375 -0.625 "/></g></g></g><g fill="#ffffff" fill-opacity="1"><g transform="translate(119.728595, 134.906741)"><g><path d="M 18.40625 -30.171875 L 23.578125 -30.640625 L 15.75 -1.390625 L 8.53125 -0.75 L -2.546875 -28.328125 L 2.96875 -28.8125 L 12.0625 -5.4375 Z M 18.40625 -30.171875 "/></g></g></g><g fill="#ffffff" fill-opacity="1"><g transform="translate(173.603703, 132.254112)"><g><path d="M 22.421875 -22.828125 L 9.234375 -23.5 L 8.859375 -16.1875 L 21.40625 -15.546875 L 21.171875 -11.0625 L 8.625 -11.703125 L 8.234375 -4.0625 L 21.90625 -3.359375 L 21.3125 1.109375 L 2.921875 0.15625 L 4.390625 -28.25 L 22.65625 -27.3125 Z M 22.421875 -22.828125 "/></g></g></g><g fill="#ffffff" fill-opacity="1"><g transform="translate(224.822271, 136.837916)"><g><path d="M 25.875 -0.03125 L 26.28125 4.15625 C 25.6875 4.445312 24.984375 4.628906 24.171875 4.703125 C 23.367188 4.785156 22.550781 4.742188 21.71875 4.578125 C 18.78125 4.015625 16.722656 2.269531 15.546875 -0.65625 L 12.703125 -7.65625 C 12.410156 -8.394531 12.066406 -8.9375 11.671875 -9.28125 C 11.273438 -9.625 10.8125 -9.847656 10.28125 -9.953125 L 10.109375 -9.984375 L 7.875 1.53125 L 2.875 0.5625 L 8.296875 -27.359375 L 16.984375 -25.671875 C 20.523438 -24.984375 23.0625 -23.726562 24.59375 -21.90625 C 26.125 -20.09375 26.640625 -17.90625 26.140625 -15.34375 C 25.835938 -13.78125 25.238281 -12.503906 24.34375 -11.515625 C 23.457031 -10.535156 22.359375 -9.832031 21.046875 -9.40625 C 19.734375 -8.988281 18.316406 -8.832031 16.796875 -8.9375 C 17.492188 -8.363281 18.078125 -7.515625 18.546875 -6.390625 L 20.09375 -2.703125 C 20.507812 -1.753906 20.945312 -1.070312 21.40625 -0.65625 C 21.863281 -0.25 22.476562 0.03125 23.25 0.1875 C 24.175781 0.363281 25.050781 0.289062 25.875 -0.03125 Z M 15.8125 -21.578125 L 12.484375 -22.21875 L 10.890625 -13.984375 L 13.984375 -13.390625 C 16.128906 -12.972656 17.773438 -12.992188 18.921875 -13.453125 C 20.066406 -13.921875 20.78125 -14.878906 21.0625 -16.328125 C 21.59375 -19.046875 19.84375 -20.796875 15.8125 -21.578125 Z M 15.8125 -21.578125 "/></g></g></g><g fill="#ffffff" fill-opacity="1"><g transform="translate(277.437553, 149.349774)"><g/></g></g><g fill="#ffffff" fill-opacity="1"><g transform="translate(313.818026, 162.496184)"><g><path d="M 31.75 -16.40625 L 36.265625 -14.25 L 24.046875 11.4375 L 19.921875 9.484375 L 15.671875 -14.5 L 7.15625 3.40625 L 2.640625 1.25 L 14.859375 -24.4375 L 18.984375 -22.46875 L 23.234375 1.5 Z M 31.75 -16.40625 "/></g></g></g><g fill="#ffffff" fill-opacity="1"><g transform="translate(365.36383, 189.4466)"><g><path d="M 22.21875 -2.765625 L 31.546875 3.59375 L 23.1875 15.828125 L 19.78125 13.515625 L 21.125 10.734375 C 19.65625 11.222656 18.179688 11.273438 16.703125 10.890625 C 15.222656 10.515625 13.765625 9.835938 12.328125 8.859375 C 10.078125 7.316406 8.441406 5.519531 7.421875 3.46875 C 6.398438 1.414062 6.03125 -0.78125 6.3125 -3.125 C 6.59375 -5.476562 7.550781 -7.859375 9.1875 -10.265625 C 10.882812 -12.753906 12.882812 -14.582031 15.1875 -15.75 C 17.5 -16.914062 19.957031 -17.382812 22.5625 -17.15625 C 25.175781 -16.9375 27.753906 -15.960938 30.296875 -14.234375 C 32.367188 -12.816406 33.878906 -11.21875 34.828125 -9.4375 C 35.773438 -7.664062 36.207031 -5.675781 36.125 -3.46875 L 31.171875 -3.296875 C 31.285156 -4.765625 31.007812 -6.097656 30.34375 -7.296875 C 29.6875 -8.492188 28.75 -9.507812 27.53125 -10.34375 C 25.90625 -11.457031 24.242188 -12.066406 22.546875 -12.171875 C 20.859375 -12.273438 19.25 -11.910156 17.71875 -11.078125 C 16.195312 -10.242188 14.859375 -8.976562 13.703125 -7.28125 C 12.015625 -4.8125 11.328125 -2.472656 11.640625 -0.265625 C 11.960938 1.941406 13.21875 3.789062 15.40625 5.28125 C 16.4375 5.976562 17.539062 6.457031 18.71875 6.71875 C 19.90625 6.976562 21.039062 6.9375 22.125 6.59375 C 23.21875 6.25 24.132812 5.539062 24.875 4.46875 L 25.015625 4.265625 L 19.828125 0.734375 Z M 22.21875 -2.765625 "/></g></g></g><g fill="#ffffff" fill-opacity="1"><g transform="translate(412.556821, 224.389067)"><g><path d="M 35.390625 -5.765625 L 39.140625 -2.234375 L 28.796875 8.828125 C 26.878906 10.910156 24.875 12.375 22.78125 13.21875 C 20.695312 14.0625 18.625 14.265625 16.5625 13.828125 C 14.5 13.390625 12.539062 12.296875 10.6875 10.546875 C 7.738281 7.773438 6.21875 4.941406 6.125 2.046875 C 6.03125 -0.835938 7.414062 -3.804688 10.28125 -6.859375 L 21.515625 -18.796875 L 25.328125 -15.234375 L 14.375 -3.59375 C 12.414062 -1.507812 11.421875 0.394531 11.390625 2.125 C 11.359375 3.851562 12.175781 5.503906 13.84375 7.078125 C 15.539062 8.671875 17.320312 9.320312 19.1875 9.03125 C 21.050781 8.738281 23.050781 7.4375 25.1875 5.125 Z M 35.390625 -5.765625 "/></g></g></g><g fill="#ffffff" fill-opacity="1"><g transform="translate(453.550573, 266.163371)"><g><path d="M 37.40625 1.453125 L 18.921875 3.421875 L 8.9375 11.3125 L 5.6875 7.203125 L 15.578125 -0.609375 L 21.65625 -18.46875 L 25.3125 -13.84375 L 21 -1.28125 L 34.03125 -2.8125 Z M 37.40625 1.453125 "/></g></g></g><g fill="#ffffff" fill-opacity="1"><g transform="translate(484.392231, 308.433149)"><g><path d="M 31.40625 6.171875 L 24.71875 -5.21875 L 18.390625 -1.515625 L 24.75 9.328125 L 20.890625 11.59375 L 14.53125 0.75 L 7.921875 4.640625 L 14.84375 16.453125 L 10.8125 18.40625 L 1.484375 2.515625 L 26 -11.890625 L 35.265625 3.890625 Z M 31.40625 6.171875 "/></g></g></g><g fill="#ffffff" fill-opacity="1"><g transform="translate(508.805133, 353.624038)"><g><path d="M 34.46875 9.34375 L 36.359375 13.984375 L 10.015625 24.671875 L 8.296875 20.4375 L 21.359375 -0.109375 L 2.984375 7.34375 L 1.09375 2.703125 L 27.4375 -7.984375 L 29.15625 -3.75 L 16.109375 16.796875 Z M 34.46875 9.34375 "/></g></g></g><g fill="#ffffff" fill-opacity="1"><g transform="translate(528.43922, 408.679272)"><g/></g></g></g></g></svg>